<?xml version="1.0" encoding="UTF-8" standalone="no"?>
<!DOCTYPE svg PUBLIC "-//W3C//DTD SVG 1.1//EN" "http://www.w3.org/Graphics/SVG/1.1/DTD/svg11.dtd">
<svg width="100%" height="100%" viewBox="0 0 621 640" version="1.1" xmlns="http://www.w3.org/2000/svg" xmlns:xlink="http://www.w3.org/1999/xlink" xml:space="preserve" xmlns:serif="http://www.serif.com/" style="fill-rule:evenodd;clip-rule:evenodd;stroke-linecap:round;stroke-linejoin:round;stroke-miterlimit:1.5;">
    <g transform="matrix(1,0,0,1,-111.883355,-695.753786)">
        <g id="light-mode" serif:id="light mode" transform="matrix(1,0,0,1,-1155.838943,-23.243191)">
            <path d="M1328.685,1278.674C1328.062,1279.999 1328.334,1281.572 1329.366,1282.611C1330.397,1283.65 1331.967,1283.934 1333.297,1283.322C1357.933,1271.982 1429.055,1239.244 1460.483,1224.777C1463.92,1223.194 1466.365,1220.031 1467.03,1216.306C1467.695,1212.581 1466.496,1208.767 1463.819,1206.093C1326.065,1068.25 1307.379,937.875 1446.959,817.439C1570.517,729.379 1718.847,758.052 1799.338,894.148C1744.908,717.522 1535.542,686.518 1404.747,768.193C1245.574,867.589 1235.668,1036.613 1353.471,1197.385C1364.585,1212.554 1343.866,1246.879 1328.685,1278.674Z" style="fill:rgb(255,107,43);stroke:black;stroke-width:12.5px;"/>
            <path d="M1518.476,1269.473L1655.322,1269.473" style="fill:none;stroke:black;stroke-width:20.83px;"/>
            <path d="M1518.476,1307.201L1655.322,1307.201" style="fill:none;stroke:black;stroke-width:20.83px;"/>
            <path d="M1553.601,1342.986C1552.73,1341.868 1552.573,1340.351 1553.195,1339.078C1553.818,1337.805 1555.111,1336.998 1556.528,1336.998C1570.389,1336.975 1601.47,1336.975 1615.553,1336.975C1617.121,1336.975 1618.558,1337.853 1619.273,1339.248C1619.988,1340.644 1619.861,1342.323 1618.944,1343.596C1613.623,1351.071 1605.484,1356.669 1591.605,1358.441C1588.244,1358.882 1584.842,1358.912 1581.474,1358.533C1570.117,1357.26 1560.738,1352.24 1553.601,1342.986Z"/>
            <path d="M1553.601,1342.986C1552.73,1341.868 1552.573,1340.351 1553.195,1339.078C1553.818,1337.805 1555.111,1336.998 1556.528,1336.998C1570.389,1336.975 1601.47,1336.975 1615.553,1336.975C1617.121,1336.975 1618.558,1337.853 1619.273,1339.248C1619.988,1340.644 1619.861,1342.323 1618.944,1343.596C1613.623,1351.071 1605.484,1356.669 1591.605,1358.441C1588.244,1358.882 1584.842,1358.912 1581.474,1358.533C1570.117,1357.26 1560.738,1352.24 1553.601,1342.986ZM1556.61,1340.747C1563.088,1349.119 1571.598,1353.653 1581.892,1354.806L1581.894,1354.807C1584.961,1355.152 1588.058,1355.124 1591.117,1354.723L1591.13,1354.721C1603.668,1353.121 1611.082,1348.174 1615.889,1341.421L1615.901,1341.404C1615.995,1341.273 1616.008,1341.101 1615.935,1340.958C1615.862,1340.815 1615.714,1340.725 1615.553,1340.725C1601.497,1340.725 1570.508,1340.725 1556.61,1340.747Z"/>
            <path d="M1529.571,1232.698C1521.507,1232.79 1514.315,1227.639 1511.806,1219.974C1498.573,1179.82 1478.505,1146.141 1451.19,1115.244C1445.21,1108.474 1439.85,1101.181 1435.173,1093.453C1347.271,948.718 1465.405,800.324 1601.367,806.897C1714.841,812.382 1820.796,915.995 1764.712,1046.728C1754.341,1070.805 1739.954,1092.945 1722.164,1112.201C1691.663,1145.202 1668.625,1180.814 1660.499,1217.225C1658.77,1225.371 1651.622,1231.229 1643.295,1231.324C1615.611,1231.716 1556.447,1232.391 1529.571,1232.698Z" style="fill:none;stroke:black;stroke-width:15.83px;"/>
            <path d="M1622.733,899.432L1507.677,1045.445L1583.067,1043.861L1540.132,1195.384L1685.383,995.108L1601.367,995.871L1622.733,899.432Z" style="fill:rgb(255,107,43);stroke:black;stroke-width:8.33px;"/>
            <path d="M1601.367,1162.771C1702.649,1138.849 1771.01,1094.763 1805.252,1029.779C1815.093,1011.064 1821.76,990.846 1824.98,969.948C1842.099,859.15 1785.415,795.246 1715.953,739.459C1814.461,781.537 1867.488,857.978 1879.724,965.239C1884.226,1004.255 1878.911,1043.777 1864.262,1080.217C1834.762,1153.356 1775.84,1190.828 1705.005,1213.86C1756.082,1186.393 1785.957,1163.551 1795.755,1145.09C1796.908,1142.927 1796.526,1140.267 1794.811,1138.516C1793.097,1136.765 1790.444,1136.329 1788.259,1137.437C1749.693,1155.99 1685.289,1163.533 1601.367,1162.771Z" style="fill:rgb(255,107,43);stroke:black;stroke-width:12.5px;"/>
            <g transform="matrix(0.896861,0.442312,-0.442312,0.896861,556.241345,-548.970599)">
                <path d="M1496.906,941.131L1503.966,964.069C1504.126,964.589 1504.411,965.062 1504.795,965.446C1505.18,965.831 1505.653,966.115 1506.172,966.275L1529.11,973.335L1506.172,980.395C1505.653,980.555 1505.18,980.84 1504.795,981.224C1504.411,981.609 1504.126,982.082 1503.966,982.602L1496.906,1005.539L1489.846,982.602C1489.686,982.082 1489.401,981.609 1489.017,981.224C1488.632,980.84 1488.16,980.555 1487.64,980.395L1464.702,973.335L1487.64,966.275C1488.16,966.115 1488.632,965.831 1489.017,965.446C1489.401,965.062 1489.686,964.589 1489.846,964.069L1496.906,941.131Z" style="fill:none;stroke:black;stroke-width:8.33px;"/>
            </g>
        </g>
        <g id="dark-mode" serif:id="dark mode">
        </g>
    </g>
</svg>
